<svg xmlns="http://www.w3.org/2000/svg" width="140.648" height="140.648" viewBox="0 0 140.648 140.648">
  <g id="icons8-dinner" transform="translate(-5 -5)">
    <path id="Path_132287" data-name="Path 132287" d="M5,116.038V20.471A15.469,15.469,0,0,1,20.471,5H130.177a15.469,15.469,0,0,1,15.471,15.471v95.567Z" fill="#5c6bc0"/>
    <path id="Path_132288" data-name="Path 132288" d="M36.552,23A5.552,5.552,0,1,0,42.1,28.552,5.552,5.552,0,0,0,36.552,23Z" transform="translate(70.233 48.623)" fill="#b0bec5"/>
    <path id="Path_132289" data-name="Path 132289" d="M83.22,38.4H27.7A3.7,3.7,0,0,1,24,34.7h0A3.7,3.7,0,0,1,27.7,31H83.22a3.7,3.7,0,0,1,3.7,3.7h0A3.7,3.7,0,0,1,83.22,38.4Z" transform="translate(51.324 70.233)" fill="#94a3a8"/>
    <path id="Path_132290" data-name="Path 132290" d="M80.035,49.909a27.49,27.49,0,0,0-54.89,0Z" transform="translate(54.417 51.324)" fill="#b0bec5"/>
    <path id="Path_132291" data-name="Path 132291" d="M29.851,36.6a1.827,1.827,0,0,1-.966-.27,1.856,1.856,0,0,1-.614-2.546,19.347,19.347,0,0,1,10.267-8.2,1.852,1.852,0,1,1,1.129,3.527,15.828,15.828,0,0,0-8.239,6.6A1.84,1.84,0,0,1,29.851,36.6Z" transform="translate(62.128 55.375)" fill="#fff"/>
    <path id="Path_132292" data-name="Path 132292" d="M30.325,43.108a1.85,1.85,0,0,1-1.6-2.791l.492-.829c1.362-2.273,1.984-3.309,1.984-6.544a9.237,9.237,0,0,0-1.7-4.6,13.5,13.5,0,0,1-1.71-3.8,13.568,13.568,0,0,1,1.939-10.138,1.852,1.852,0,1,1,3.19,1.88,10.014,10.014,0,0,0-1.514,7.458,10.546,10.546,0,0,0,1.3,2.735,12.626,12.626,0,0,1,2.2,6.466A13.67,13.67,0,0,1,32.4,41.391l-.481.807A1.849,1.849,0,0,1,30.325,43.108Zm14.805,0a1.85,1.85,0,0,1-1.6-2.791l.492-.829c1.362-2.273,1.984-3.309,1.984-6.544a9.237,9.237,0,0,0-1.7-4.6,13.5,13.5,0,0,1-1.71-3.8,13.568,13.568,0,0,1,1.939-10.138,1.852,1.852,0,1,1,3.19,1.88,10.014,10.014,0,0,0-1.514,7.458,10.546,10.546,0,0,0,1.3,2.735,12.626,12.626,0,0,1,2.2,6.466,13.67,13.67,0,0,1-2.509,8.443l-.481.807A1.849,1.849,0,0,1,45.13,43.108Zm14.805,0a1.85,1.85,0,0,1-1.6-2.791l.492-.829c1.362-2.273,1.984-3.309,1.984-6.544a9.237,9.237,0,0,0-1.7-4.6,13.5,13.5,0,0,1-1.71-3.8,13.568,13.568,0,0,1,1.939-10.138,1.852,1.852,0,1,1,3.19,1.88,10.014,10.014,0,0,0-1.514,7.458,10.546,10.546,0,0,0,1.3,2.735,12.626,12.626,0,0,1,2.2,6.466,13.67,13.67,0,0,1-2.509,8.443l-.481.807A1.849,1.849,0,0,1,59.935,43.108Z" transform="translate(60.774 22.963)" fill="#7bbdea"/>
    <path id="Path_132293" data-name="Path 132293" d="M145.648,33H5V54.182a15.831,15.831,0,0,0,15.83,15.83H129.814a15.832,15.832,0,0,0,15.834-15.83Z" transform="translate(0 75.635)" fill="#39dee2"/>
    <path id="Path_132294" data-name="Path 132294" d="M27.345,7c-.392,0-.77.037-1.158.059A17.689,17.689,0,1,1,8.065,37.265,21.274,21.274,0,1,0,27.345,7Z" transform="translate(8.279 5.403)" fill="#ffc107"/>
  </g>
</svg>
