<svg xmlns="http://www.w3.org/2000/svg" width="24" height="24" viewBox="0 0 24 24"><g transform="translate(-323 -385)"><path style="fill:#3e7eff;" d="M16.071,4a.772.772,0,1,0,0,1.545A6.94,6.94,0,0,1,23.023,12.5a.772.772,0,1,0,1.545,0A8.509,8.509,0,0,0,16.071,4Zm-6.748.006a2.042,2.042,0,0,0-.781.092l-1.108.355A3.357,3.357,0,0,0,5.22,6.928q-.969,4.216,2.324,10.265t7.212,7.265a3.112,3.112,0,0,0,3.144-.8l.842-.846a2.392,2.392,0,0,0,.267-3L17.74,17.943a2.1,2.1,0,0,0-2.4-.844l-1.929.644a.787.787,0,0,1-.754-.134,9.031,9.031,0,0,1-2-2.4A8.407,8.407,0,0,1,9.6,12.342a.78.78,0,0,1,.241-.687l1.654-1.57a2.386,2.386,0,0,0,.529-2.645l-.885-2.088A2.168,2.168,0,0,0,9.324,4.006ZM16.071,7.09a.772.772,0,1,0,0,1.545A3.85,3.85,0,0,1,19.934,12.5a.772.772,0,1,0,1.545,0A5.419,5.419,0,0,0,16.071,7.09Zm0,3.09a.772.772,0,1,0,0,1.545.761.761,0,0,1,.772.772.772.772,0,1,0,1.545,0A2.329,2.329,0,0,0,16.071,10.179Z" transform="translate(320 383)"/><rect style="fill:none;" width="24" height="24" transform="translate(347 409) rotate(180)"/></g></svg>