<svg xmlns="http://www.w3.org/2000/svg" width="48" height="48" viewBox="0 0 48 48"><g transform="translate(-6497 11542)"><rect style="fill:none;" width="48" height="48" transform="translate(6545 -11494) rotate(180)"/><path style="fill:#43b978;" d="M26,6A20,20,0,1,0,46,26,20.014,20.014,0,0,0,26,6Zm0,2.069A17.931,17.931,0,1,1,8.069,26,17.939,17.939,0,0,1,26,8.069ZM33.254,20.81a1.1,1.1,0,0,0-.737.328L25.31,28.621l-3.759-4.034a1.025,1.025,0,1,0-1.517,1.379l4.518,4.862a1.044,1.044,0,0,0,.758.345,1.069,1.069,0,0,0,.758-.31L34,22.552a1.03,1.03,0,0,0-.034-1.448A.911.911,0,0,0,33.254,20.81Z" transform="translate(6495 -11544)"/></g></svg>