<svg xmlns="http://www.w3.org/2000/svg" width="24.696" height="24" viewBox="0 0 24.696 24"><g transform="translate(0 24) rotate(-90)"><path style="fill:#fff;" d="M23.549,13.473a1.128,1.128,0,0,1-.784-.346L12.345,2.707,1.925,13.127A1.121,1.121,0,1,1,.339,11.541L11.552.328a1.121,1.121,0,0,1,1.586,0L24.351,11.541a1.123,1.123,0,0,1-.8,1.932Z" transform="translate(23.261 0) rotate(90)"/><path style="fill:#fff;" d="M18.635,10.661a.893.893,0,0,1-.62-.274L9.769,2.142,1.523,10.388A.887.887,0,1,1,.268,9.133L9.141.26A.887.887,0,0,1,10.4.26l8.873,8.873a.888.888,0,0,1-.634,1.529Z" transform="translate(15.855 2.577) rotate(90)"/><path style="fill:none;" d="M24,0H0V24H24Z"/></g></svg>