<svg xmlns="http://www.w3.org/2000/svg" xmlns:xlink="http://www.w3.org/1999/xlink" width="200" height="200" viewBox="0 0 200 200"><defs><filter id="a" x="0" y="0" width="200" height="200" filterUnits="userSpaceOnUse"><feOffset input="SourceAlpha"/><feGaussianBlur stdDeviation="20" result="b"/><feFlood flood-color="#0f0f2d" flood-opacity="0.502"/><feComposite operator="in" in2="b"/><feComposite in="SourceGraphic"/></filter></defs><g transform="translate(-80.361 -133.305)"><g style="filter:url(#a);" transform="matrix(1, 0, 0, 1, 80.36, 133.31)"><path style="fill:#fff;}" d="M95.4,54.825c0,22.087-17.913,40.575-40,40.575a40,40,0,1,1,40-40" transform="translate(44.6 44.6)"/></g><path style="fill:#3e7eff;" d="M17.819,37.145V16.8l.029-.017V14.84L0,24.553v-1l17.848-9.8V3.1H15.52V0h5.658V11.927l2.711-1.488L48,23.553v1l-24.111-13-2.711,1.475V14.8h0V37.169c0,2.3,1.247,3.5,3.384,3.5,2.16,0,3.407-1.2,3.407-3.5V15.8l3.384,2V37.145c0,4.416-3.168,6.576-6.84,6.576S17.819,41.561,17.819,37.145ZM34.6,43.553V19.8c11.143,5.348,12.241,6.428,12.5,10.152,0,2.525-.993,4.549-2.624,5.076,1.9.337,2.872,2.02,2.872,3.988,0,2.664-2.039,4.536-5.52,4.536Zm3.361-2.736H41.34c1.632,0,2.592-.792,2.592-2.208,0-1.44-1.032-2.3-2.664-2.3H37.956Zm0-7.329h3.115c1.584,0,2.713-1.4,2.713-3.445,0-3.508-5.827-5.243-5.827-5.243ZM11.2,43.553V36.425H4.019v7.128H.66V26.8l3.36-2v8.888H11.2V20.8l3.361-2V43.553Z" transform="translate(156.361 209.446)"/></g></svg>