<svg xmlns="http://www.w3.org/2000/svg" width="20" height="29.286" viewBox="0 0 20 29.286">
  <g id="icons8-google-maps-5" transform="translate(-10 -4)">
    <path id="Path_132326" data-name="Path 132326" d="M30.654,22.291h.007s-2.693,3.95-4.957,6.886a12.915,12.915,0,0,0-2.693,5.757.763.763,0,0,1-1.514,0A12.915,12.915,0,0,0,18.8,29.177c-.3-.393-.607-.8-.914-1.214l7.393-8.786,5.95-7.057a10.662,10.662,0,0,1-.579,10.171Z" transform="translate(-2.254 -2.32)" fill="#48b564"/>
    <path id="Path_132327" data-name="Path 132327" d="M23.44,20l-7.393,8.786C14.033,26.086,12,23.114,12,23.114h.007a8.9,8.9,0,0,1-.571-1.057L17.383,15a3.927,3.927,0,1,0,6.057,5Z" transform="translate(-0.411 -3.143)" fill="#fcc60e"/>
    <path id="Path_132328" data-name="Path 132328" d="M24.077,4.529,17.956,11.8,13.27,7.714A9.823,9.823,0,0,1,20.934,4,9.547,9.547,0,0,1,24.077,4.529Z" transform="translate(-0.934)" fill="#2c85eb"/>
    <path id="Path_132329" data-name="Path 132329" d="M17.021,13.286l-.05.057L11.029,20.4A10.612,10.612,0,0,1,12.336,9.2Z" transform="translate(0 -1.486)" fill="#ed5748"/>
    <path id="Path_132330" data-name="Path 132330" d="M25.817,17.069a3.927,3.927,0,1,0-6.057-5L25.931,4.74a10.094,10.094,0,0,1,5.836,5.271Z" transform="translate(-2.789 -0.211)" fill="#5695f6"/>
  </g>
</svg>
