<svg id="currency_rupee_black_24dp" xmlns="http://www.w3.org/2000/svg" width="24" height="24" viewBox="0 0 24 24">
  <g id="Group_50901" data-name="Group 50901">
    <rect id="Rectangle_30284" data-name="Rectangle 30284" width="24" height="24" fill="none"/>
  </g>
  <g id="Group_50902" data-name="Group 50902">
    <path id="Path_132301" data-name="Path 132301" d="M10.5,14H9.77l5.1,5.31a1,1,0,1,1-1.44,1.38L7.4,14.41a1.393,1.393,0,0,1-.4-.98A1.43,1.43,0,0,1,8.43,12H10.5a3.493,3.493,0,0,0,3.46-3H7A1,1,0,0,1,7,7h6.66A3.494,3.494,0,0,0,10.5,5H7A1,1,0,0,1,7,3H17a1,1,0,0,1,0,2H14.74a5.485,5.485,0,0,1,1.05,2H17a1,1,0,0,1,0,2H15.98A5.517,5.517,0,0,1,10.5,14Z"/>
  </g>
</svg>
